<?xml version="1.0" encoding="UTF-8"?>
<svg xmlns="http://www.w3.org/2000/svg" xmlns:xlink="http://www.w3.org/1999/xlink" viewBox="0 0 200 140">
  <defs>
    <linearGradient id="grad1" x1="70.6" y1="31.96" x2="129.75" y2="122.3" gradientUnits="userSpaceOnUse">
      <stop offset=".01" stop-color="#449cbb"/>
      <stop offset=".04" stop-color="#3c8aa9"/>
      <stop offset=".12" stop-color="#2a5e7e"/>
      <stop offset=".19" stop-color="#1d3e5f"/>
      <stop offset=".25" stop-color="#152a4c"/>
      <stop offset=".29" stop-color="#132446"/>
      <stop offset=".53" stop-color="#822e51"/>
      <stop offset=".71" stop-color="#d3365a"/>
      <stop offset="1" stop-color="#ea943e"/>
    </linearGradient>
    <linearGradient id="grad2" x1="86.41" y1="21.62" x2="145.55" y2="111.95" xlink:href="#grad1"/>
  </defs>
  <path fill="url(#grad1)" d="m198.95,79.19c0,19.34-15.68,35.02-35.02,35.02-2.91,0-5.75-.36-8.45-1.03-.75.96-1.53,1.9-2.34,2.81-5.6,6.33-12.54,11.46-20.37,14.94-7.35,3.27-15.49,5.08-24.06,5.08-3.38,0-6.7-.28-9.92-.83-14.06-2.37-26.44-9.68-35.28-20.09-.05-.05-.09-.11-.14-.16l-34.99,11.8,22.35-14.56,7.26-4.73,15.14-9.86,24.32-15.85,4.09-2.67.36-.24,4.81,8.11,2.98,5.03,3.62,6.1.88,1.48,6.71,11.32,8.33-9.16,4.45-4.89,4.92-5.41,2.47-2.72,24.92-27.4,1.61-1.77,11.05-12.14c9.17,4.25,16.18,12.36,18.98,22.23.86,3.04,1.32,6.24,1.32,9.55Z"/>
  <path fill="url(#grad2)" d="m194.98,29.44l-23.77,15.48-7.57,4.93-1.55,1.01-23.58,15.37-8.86,5.77-1.85,1.2-4.8-8.11-5.61-9.48-7.48-12.63-2.11-3.56-17.17,18.87-.54.6-7.8,8.57-19.51,21.44-9.08,9.98-9.33,10.26c-8.33-5.06-14.38-13.49-16.26-23.41-.4-2.12-.61-4.31-.61-6.55,0-16.73,11.73-30.71,27.41-34.19,3.04-8.01,8.38-14.88,15.21-19.81,6.89-4.98,15.3-7.98,24.4-8.18.33,0,.66-.01.99-.01,2.63,0,5.2.23,7.71.68,6.48,1.16,12.46,3.76,17.6,7.45,3.26,2.35,6.19,5.14,8.69,8.28,1.5-.2,3.02-.3,4.57-.3,8.38,0,16.05,2.99,22.03,7.95h0c.42.35.84.71,1.24,1.08l1.85-.63h0l35.79-12.07Z"/>
</svg>
